<?xml version="1.0" standalone="no"?>
<!DOCTYPE svg PUBLIC "-//W3C//DTD SVG 20010904//EN"
 "http://www.w3.org/TR/2001/REC-SVG-20010904/DTD/svg10.dtd">
<svg version="1.0" xmlns="http://www.w3.org/2000/svg"
 width="225.000000pt" height="225.000000pt" viewBox="0 0 225.000000 225.000000"
 preserveAspectRatio="xMidYMid meet">

<g transform="translate(0.000000,225.000000) scale(0.100000,-0.100000)"
fill="#000000" stroke="none">
<path d="M723 1858 c-435 -435 -427 -425 -355 -472 72 -48 153 -52 231 -12 18
10 135 121 260 247 174 177 232 229 251 229 19 0 113 -89 425 -399 299 -300
411 -405 445 -420 57 -26 130 -27 178 -2 38 19 92 67 92 82 0 11 -1108 1133
-1123 1137 -7 1 -189 -174 -404 -390z"/>
<path d="M1070 1557 c-54 -27 -80 -74 -80 -141 l0 -49 115 -117 c76 -77 115
-123 115 -138 0 -14 -35 -58 -100 -125 -124 -129 -138 -161 -104 -233 22 -47
70 -74 130 -74 l48 0 208 207 c164 163 208 213 208 233 0 21 -43 69 -202 227
-112 110 -212 205 -223 210 -45 23 -72 23 -115 0z"/>
<path d="M770 1263 c-31 -11 -71 -58 -80 -95 -19 -67 12 -132 76 -163 50 -24
101 -8 164 51 67 63 68 76 12 137 -62 66 -119 89 -172 70z"/>
<path d="M118 1228 c-21 -5 -57 -27 -80 -47 -41 -37 -42 -39 -26 -62 32 -47
1103 -1120 1118 -1119 8 0 189 174 402 388 284 283 388 393 388 410 0 48 -88
105 -165 105 -99 1 -112 -7 -370 -264 -165 -163 -248 -239 -262 -239 -15 0
-141 119 -415 394 -249 250 -408 402 -433 414 -52 25 -111 33 -157 20z"/>
</g>
</svg>
