<?xml version="1.0" encoding="utf-8"?>
<!-- Generator: Adobe Illustrator 24.1.0, SVG Export Plug-In . SVG Version: 6.00 Build 0)  -->
<svg version="1.1" id="Capa_1" xmlns="http://www.w3.org/2000/svg" xmlns:xlink="http://www.w3.org/1999/xlink" x="0px" y="0px"
	 viewBox="0 0 1000 1000" enable-background="new 0 0 1000 1000" xml:space="preserve">
<g>
	<path d="M106.4438,437.6772v7.7549l10.7812,0.9457l3.2154,2.648V553.244l-3.2154,2.648l-10.7812,0.9457v7.7549h46.7185
		c19.1035,0,30.8304-2.2697,40.855-8.1332c18.9144-10.9703,29.1281-30.4521,29.1281-55.419
		c0-40.0984-25.5344-63.3631-69.9831-63.3631H106.4438z M137.4634,446.3778h14.9424c34.4241,0,51.2579,17.9687,51.2579,54.2842
		c0,37.0721-16.8338,55.2299-51.2579,55.2299h-14.9423L137.4634,446.3778z"/>
	<path d="M278.0443,436.164l-44.2596,118.4039l-10.9703,2.2697v7.7549h37.0722v-7.7549l-12.2943-0.9457l-1.8914-2.648
		l13.4292-36.1265h44.6369l13.6183,36.1265l-1.324,2.648l-11.7269,0.9457v7.7549H347.27v-7.7549l-11.3486-2.2697L290.5278,436.164
		H278.0443z M281.0706,456.0241l19.4809,52.3928h-38.2061L281.0706,456.0241z"/>
	<path d="M350.0466,564.5925h90.5998v-34.4241h-9.8354l-3.2155,22.6973l-2.648,3.0263h-42.5573V449.0258l3.0263-2.648
		l10.7812-0.9457v-7.7549h-46.151v7.7549l12.1052,0.9457l3.2154,2.648V553.244l-3.2154,2.648l-12.1052,0.9457L350.0466,564.5925z"/>
	<path d="M448.3123,564.5925h90.5998v-34.4241h-9.8354l-3.2155,22.6973l-2.648,3.0263h-42.5573V449.0258l3.0263-2.648
		l10.7812-0.9457v-7.7549h-46.151v7.7549l12.1052,0.9457l3.2155,2.648V553.244l-3.2155,2.648l-12.1052,0.9457L448.3123,564.5925z"/>
	<path d="M568.3296,489.1243c-6.8092,0-12.2943,5.296-12.2943,12.1052c0,6.62,5.4851,11.916,12.1052,11.916
		c6.62,0,11.916-5.296,11.916-11.916S574.7604,489.1243,568.3296,489.1243z"/>
	<path d="M600.7299,564.5925h97.4089v-30.8304h-9.8355l-3.2155,19.1035l-2.648,3.0263h-50.6904v-52.9602h31.0195l2.648,2.8372
		l1.8914,13.6183h8.8898v-41.6116h-8.8898l-1.8914,13.8075l-2.648,2.648h-31.0195v-47.8534h43.6922l2.6479,2.8372l2.648,16.0772
		h10.592v-27.615h-90.5997v7.7549l10.7812,0.9457l3.2155,2.648V553.244l-3.2155,2.648l-10.7812,0.9457V564.5925z"/>
	<path d="M824.708,549.6502c25.9127-20.9949,30.8304-25.1561,39.3419-33.6675c17.9686-17.5904,25.3452-31.0196,25.3452-45.5836
		c0-20.995-15.6989-34.9916-39.1527-34.9916c-22.1298,0-40.2876,12.1052-40.2876,26.8584c0,6.2418,4.1612,10.4029,10.4029,10.4029
		c3.2155,0,5.8635-0.7566,8.7006-2.8371v-20.2384c6.0526-3.2154,10.7813-4.5394,16.8338-4.5394
		c15.3206,0,25.1561,10.5921,25.1561,27.0476c0,15.8881-7.1874,28.7498-26.291,47.2859
		c-8.7006,8.5115-17.7795,16.0772-38.7744,33.2893v11.916h87.5734V533.573h-8.5115l-3.4045,16.0772H824.708z"/>
</g>
</svg>
