<?xml version="1.0" standalone="no"?>
<!DOCTYPE svg PUBLIC "-//W3C//DTD SVG 20010904//EN"
 "http://www.w3.org/TR/2001/REC-SVG-20010904/DTD/svg10.dtd">
<svg version="1.0" xmlns="http://www.w3.org/2000/svg"
 width="256.000000pt" height="256.000000pt" viewBox="0 0 256.000000 256.000000"
 preserveAspectRatio="xMidYMid meet">

<g transform="translate(0.000000,256.000000) scale(0.100000,-0.100000)"
fill="#000000" stroke="none">
<path d="M420 2037 c0 -40 -3 -76 -6 -80 -4 -3 -19 0 -35 8 -95 50 -203 -28
-203 -145 0 -113 115 -195 204 -145 22 12 27 11 42 -2 9 -8 29 -13 45 -11 l28
3 0 220 0 220 -37 3 -38 3 0 -74z m-35 -149 c19 -17 26 -33 28 -65 2 -57 -22
-83 -78 -83 -50 0 -73 21 -82 73 -5 31 -1 40 25 67 36 36 71 39 107 8z"/>
<path d="M1595 2098 c-3 -7 -4 -108 -3 -223 l3 -210 33 -3 c22 -2 34 2 38 12
5 13 10 13 46 -1 64 -26 124 -9 165 45 28 37 33 52 33 98 0 60 -15 96 -54 133
-33 31 -110 40 -154 17 l-31 -16 -3 77 -3 78 -33 3 c-20 2 -34 -2 -37 -10z
m218 -215 c26 -24 23 -97 -5 -123 -30 -27 -89 -27 -114 1 -23 26 -24 100 -2
122 29 30 87 30 121 0z"/>
<path d="M1987 2103 c-4 -3 -7 -102 -7 -219 l0 -214 25 -6 c50 -13 51 -10 58
203 4 109 4 208 1 221 -5 17 -14 22 -38 22 -18 0 -36 -3 -39 -7z"/>
<path d="M587 1974 c-14 -14 -8 -223 7 -253 29 -55 96 -76 162 -51 19 8 30 8
38 0 11 -11 46 -13 68 -5 12 5 14 61 8 303 0 9 -12 12 -37 10 l-38 -3 -5 -113
c-5 -123 -10 -132 -66 -132 -52 0 -63 23 -66 140 l-3 105 -30 3 c-17 2 -34 0
-38 -4z"/>
<path d="M956 1958 c-8 -30 -8 -262 0 -282 6 -16 39 -21 68 -10 13 5 16 23 16
93 0 101 11 125 70 142 36 11 40 15 40 46 0 41 -21 44 -74 8 l-36 -24 0 24 c0
22 -4 25 -39 25 -32 0 -40 -4 -45 -22z"/>
<path d="M1237 1941 l-42 -40 0 -81 0 -81 42 -40 c35 -32 49 -39 83 -39 23 0
55 7 72 16 28 15 32 15 40 0 5 -9 22 -16 38 -16 39 0 41 13 38 180 l-3 135
-28 3 c-16 2 -36 -3 -45 -11 -15 -13 -20 -14 -42 -2 -14 8 -44 14 -68 15 -36
0 -49 -6 -85 -39z m171 -67 c27 -31 28 -59 2 -102 -19 -31 -24 -33 -67 -30
-41 3 -49 7 -66 36 -23 39 -17 73 19 109 31 31 78 26 112 -13z"/>
<path d="M2212 1960 c-48 -30 -72 -75 -72 -140 0 -65 24 -110 72 -140 57 -34
159 -22 196 23 9 11 8 18 -8 32 -17 15 -24 16 -46 7 -56 -26 -134 -2 -134 41
0 14 17 17 108 19 l107 3 3 26 c5 43 -35 115 -73 133 -46 22 -113 20 -153 -4z
m128 -60 c38 -38 27 -50 -50 -50 -77 0 -86 9 -50 48 26 28 73 29 100 2z"/>
<path d="M838 1533 c6 -2 18 -2 25 0 6 3 1 5 -13 5 -14 0 -19 -2 -12 -5z"/>
<path d="M1078 1533 c111 -2 293 -2 405 0 111 1 20 2 -203 2 -223 0 -314 -1
-202 -2z"/>
<path d="M1698 1533 c6 -2 18 -2 25 0 6 3 1 5 -13 5 -14 0 -19 -2 -12 -5z"/>
<path d="M743 1218 c-101 -100 -183 -187 -183 -193 0 -14 422 -435 436 -435
18 0 124 110 124 128 0 9 -63 78 -140 154 -77 76 -140 143 -140 151 0 7 38 51
85 97 l85 85 233 3 c315 5 304 7 399 -86 48 -46 78 -83 78 -96 0 -14 -92 -114
-280 -301 -154 -154 -280 -287 -280 -296 0 -9 27 -42 60 -73 53 -51 63 -56 77
-44 65 51 703 697 703 711 0 9 -82 98 -182 197 l-181 180 -355 0 -356 0 -183
-182z"/>
</g>
</svg>
