<?xml version="1.0" standalone="no"?>
<!DOCTYPE svg PUBLIC "-//W3C//DTD SVG 20010904//EN"
 "http://www.w3.org/TR/2001/REC-SVG-20010904/DTD/svg10.dtd">
<svg version="1.0" xmlns="http://www.w3.org/2000/svg"
 width="256.000000pt" height="256.000000pt" viewBox="0 0 256.000000 256.000000"
 preserveAspectRatio="xMidYMid meet">

<g transform="translate(0.000000,256.000000) scale(0.100000,-0.100000)"
fill="#000000" stroke="none">
<path d="M675 2290 c-189 -33 -336 -162 -392 -345 -17 -55 -18 -107 -18 -665
0 -671 -1 -665 67 -777 41 -68 133 -155 200 -189 99 -50 154 -54 748 -54 607
0 653 4 760 61 72 38 168 136 204 208 52 102 56 153 56 751 0 594 -4 649 -54
748 -34 67 -121 159 -189 200 -110 66 -100 66 -747 68 -322 1 -607 -2 -635 -6z
m581 -701 l159 -222 3 222 2 221 145 0 145 0 0 -520 0 -520 -145 0 -145 0 -2
226 -3 226 -160 -225 -160 -226 -178 -1 -177 0 193 258 c106 141 196 263 201
269 6 12 -33 66 -296 411 l-79 102 169 0 168 0 160 -221z"/>
</g>
</svg>
