<?xml version="1.0" encoding="utf-8"?>
<!-- Generator: Adobe Illustrator 28.2.0, SVG Export Plug-In . SVG Version: 6.00 Build 0)  -->
<svg version="1.0" id="katman_1" xmlns="http://www.w3.org/2000/svg" xmlns:xlink="http://www.w3.org/1999/xlink" x="0px" y="0px"
	 viewBox="0 0 841.89 595.28" style="enable-background:new 0 0 841.89 595.28;" xml:space="preserve">
<style type="text/css">
	.st0{fill:#1D1D1B;}
</style>
<g>
	<path class="st0" d="M304.57,174.77c0,23.81,15.29,40.41,36.48,40.41s36.48-16.6,36.48-40.41s-15.29-40.41-36.48-40.41
		S304.57,150.96,304.57,174.77z M363.56,174.77c0,17.04-9.28,28.07-22.5,28.07c-13.22,0-22.5-11.03-22.5-28.07
		s9.28-28.07,22.5-28.07C354.27,146.7,363.56,157.73,363.56,174.77z"/>
	<path class="st0" d="M416.91,215.18c16.06,0,25.23-13.54,25.23-29.82s-9.17-29.82-25.23-29.82c-7.43,0-12.89,2.95-16.49,7.21v-6.12
		h-13.11v77h13.11v-25.67C404.02,212.23,409.48,215.18,416.91,215.18L416.91,215.18z M400.09,183.72c0-10.81,6.12-16.71,14.2-16.71
		c9.5,0,14.64,7.43,14.64,18.35c0,10.92-5.13,18.35-14.64,18.35c-8.08,0-14.2-6.01-14.2-16.6V183.72z"/>
	<path class="st0" d="M477.61,215.18c11.47,0,20.53-6.01,24.58-16.06l-11.25-4.26c-1.75,5.9-6.88,9.17-13.33,9.17
		c-8.41,0-14.31-6.01-15.29-15.84h40.2v-4.37c0-15.73-8.85-28.29-25.45-28.29c-16.6,0-27.31,13-27.31,29.82
		C449.76,203.06,461.23,215.18,477.61,215.18L477.61,215.18z M476.95,166.57c8.3,0,12.23,5.46,12.34,11.8h-26.32
		C464.94,170.62,470.18,166.57,476.95,166.57L476.95,166.57z"/>
	<path class="st0" d="M512.35,213.98h13.11v-33.64c0-8.19,6.01-12.56,11.91-12.56c7.21,0,10.05,5.13,10.05,12.23v33.97h13.11v-37.79
		c0-12.34-7.21-20.64-19.22-20.64c-7.43,0-12.56,3.39-15.84,7.21v-6.12h-13.11V213.98z"/>
	<path class="st0" d="M598.91,135.55l-29.71,78.42h13.87l6.66-17.91h33.86l6.77,17.91h14.09l-29.71-78.42H598.91z M606.55,151.06
		L619,183.83h-24.69L606.55,151.06z"/>
	<path class="st0" d="M666.95,135.78h-13.98v78.42h13.98V135.78z"/>
	<path class="st0" d="M272.54,164.36c3.3-9.92,2.17-20.78-3.12-29.8c-7.95-13.84-23.92-20.95-39.52-17.6
		c-6.94-7.82-16.91-12.27-27.37-12.2c-15.95-0.04-30.1,10.23-35,25.4c-10.24,2.1-19.09,8.51-24.26,17.6
		c-8.01,13.8-6.18,31.19,4.51,43.03c-3.3,9.92-2.17,20.78,3.12,29.8c7.95,13.84,23.92,20.95,39.52,17.6
		c6.94,7.82,16.91,12.27,27.37,12.2c15.96,0.04,30.11-10.24,35.02-25.42c10.24-2.1,19.09-8.51,24.26-17.6
		C285.07,193.56,283.24,176.18,272.54,164.36L272.54,164.36z M217.8,240.87c-6.39,0.01-12.57-2.23-17.47-6.32
		c0.22-0.12,0.61-0.33,0.86-0.49l29-16.75c1.48-0.84,2.39-2.42,2.38-4.13V172.3l12.26,7.08c0.13,0.06,0.22,0.19,0.24,0.34v33.86
		C245.05,228.63,232.86,240.83,217.8,240.87L217.8,240.87z M159.17,215.82c-3.2-5.53-4.35-12-3.25-18.29
		c0.21,0.13,0.59,0.36,0.86,0.51l29,16.75c1.47,0.86,3.29,0.86,4.76,0l35.4-20.44v14.15c0.01,0.15-0.06,0.29-0.17,0.38l-29.31,16.93
		C183.4,233.33,166.72,228.86,159.17,215.82L159.17,215.82z M151.53,152.52c3.19-5.53,8.21-9.77,14.2-11.96c0,0.25-0.01,0.69-0.01,1
		v33.5c-0.01,1.7,0.9,3.28,2.38,4.12l35.4,20.44l-12.26,7.08c-0.12,0.08-0.28,0.1-0.41,0.04l-29.32-16.94
		C148.49,182.25,144.02,165.58,151.53,152.52L151.53,152.52z M252.23,175.95l-35.4-20.44l12.26-7.07c0.12-0.08,0.28-0.1,0.41-0.04
		l29.32,16.93c13.05,7.54,17.53,24.24,9.99,37.29c-3.19,5.53-8.21,9.76-14.2,11.96v-34.5C254.62,178.38,253.71,176.8,252.23,175.95
		L252.23,175.95z M264.43,157.6c-0.21-0.13-0.59-0.36-0.86-0.51l-29-16.75c-1.47-0.86-3.29-0.86-4.76,0l-35.4,20.44v-14.15
		c-0.01-0.15,0.06-0.29,0.17-0.38l29.31-16.91c13.06-7.53,29.75-3.05,37.28,10.01C264.35,144.86,265.5,151.32,264.43,157.6
		L264.43,157.6z M187.74,182.82l-12.26-7.08c-0.13-0.06-0.22-0.19-0.24-0.34v-33.86c0.01-15.07,12.24-27.29,27.31-27.28
		c6.38,0,12.55,2.24,17.45,6.32c-0.22,0.12-0.61,0.33-0.86,0.49l-29,16.75c-1.48,0.84-2.39,2.42-2.38,4.12L187.74,182.82
		L187.74,182.82z M194.4,168.47l15.77-9.11l15.77,9.1v18.21l-15.77,9.1l-15.77-9.1L194.4,168.47z"/>
</g>
<g>
	<path d="M206.49,393.18c-22.33-6.42-38.57-14.3-48.74-23.66c-10.17-9.36-15.25-20.9-15.25-34.64c0-15.55,6.21-28.4,18.64-38.57
		c12.43-10.17,28.58-15.25,48.47-15.25c13.56,0,25.65,2.62,36.27,7.86c10.62,5.24,18.85,12.47,24.68,21.69
		c5.83,9.22,8.75,19.3,8.75,30.24h-26.17c0-11.97-3.8-21.38-11.39-28.23c-7.59-6.85-18.3-10.27-32.13-10.27
		c-12.84,0-22.85,2.83-30.03,8.49c-7.19,5.66-10.78,13.51-10.78,23.56c0,8.06,3.41,14.88,10.24,20.44
		c6.82,5.57,18.44,10.66,34.85,15.28c16.41,4.62,29.24,9.71,38.51,15.27c9.26,5.56,16.13,12.05,20.61,19.46
		c4.47,7.41,6.71,16.13,6.71,26.17c0,16-6.24,28.81-18.71,38.44c-12.47,9.63-29.15,14.44-50.03,14.44c-13.56,0-26.21-2.6-37.96-7.8
		c-11.75-5.2-20.81-12.31-27.18-21.35c-6.37-9.04-9.56-19.3-9.56-30.78h26.17c0,11.93,4.41,21.36,13.22,28.27
		c8.81,6.92,20.59,10.37,35.32,10.37c13.74,0,24.27-2.8,31.59-8.41c7.32-5.6,10.98-13.24,10.98-22.91c0-9.67-3.39-17.15-10.17-22.44
		C236.59,403.56,224.3,398.34,206.49,393.18z"/>
	<path d="M302.49,406.47c0-14.37,2.82-27.3,8.47-38.78c5.65-11.48,13.51-20.34,23.59-26.57c10.08-6.24,21.58-9.36,34.51-9.36
		c19.98,0,36.13,6.92,48.47,20.74c12.34,13.83,18.51,32.23,18.51,55.18v1.76c0,14.28-2.73,27.1-8.2,38.44
		c-5.47,11.35-13.29,20.18-23.46,26.51c-10.17,6.33-21.85,9.49-35.05,9.49c-19.89,0-36-6.91-48.34-20.74
		c-12.34-13.83-18.51-32.13-18.51-54.91V406.47z M327.71,409.45c0,16.27,3.77,29.33,11.32,39.18c7.55,9.85,17.65,14.78,30.3,14.78
		c12.74,0,22.87-4.99,30.37-14.98c7.5-9.99,11.25-23.98,11.25-41.96c0-16.09-3.82-29.13-11.46-39.12
		c-7.64-9.99-17.78-14.98-30.44-14.98c-12.38,0-22.37,4.93-29.96,14.78C331.5,377,327.71,391.11,327.71,409.45z"/>
	<path d="M538.4,356.98c-3.8-0.63-7.91-0.95-12.34-0.95c-16.45,0-27.61,7.01-33.49,21.02v104.13h-25.08v-146.7h24.41l0.41,16.95
		c8.23-13.1,19.88-19.66,34.98-19.66c4.88,0,8.59,0.63,11.12,1.9V356.98z"/>
	<path d="M646.6,481.18c-1.45-2.89-2.62-8.04-3.53-15.46c-11.66,12.11-25.58,18.17-41.76,18.17c-14.46,0-26.33-4.09-35.59-12.27
		c-9.27-8.18-13.9-18.55-13.9-31.12c0-15.27,5.81-27.14,17.42-35.59c11.61-8.45,27.95-12.68,49.01-12.68h24.4v-11.53
		c0-8.77-2.62-15.75-7.86-20.95c-5.24-5.2-12.97-7.8-23.18-7.8c-8.95,0-16.45,2.26-22.51,6.78c-6.06,4.52-9.08,9.99-9.08,16.41
		h-25.22c0-7.32,2.6-14.39,7.8-21.22c5.2-6.82,12.25-12.22,21.15-16.2c8.9-3.98,18.69-5.97,29.35-5.97
		c16.9,0,30.14,4.23,39.73,12.68c9.58,8.45,14.55,20.09,14.91,34.91v67.52c0,13.47,1.72,24.18,5.15,32.13v2.17H646.6z
		 M604.98,462.06c7.86,0,15.32-2.03,22.37-6.1c7.05-4.07,12.16-9.36,15.32-15.86V410h-19.66c-30.73,0-46.1,9-46.1,26.98
		c0,7.86,2.62,14.01,7.86,18.44C590.02,459.85,596.75,462.06,604.98,462.06z"/>
</g>
</svg>
