<?xml version="1.0" standalone="no"?>
<!DOCTYPE svg PUBLIC "-//W3C//DTD SVG 20010904//EN"
 "http://www.w3.org/TR/2001/REC-SVG-20010904/DTD/svg10.dtd">
<svg version="1.0" xmlns="http://www.w3.org/2000/svg"
 width="291.000000pt" height="212.000000pt" viewBox="0 0 291.000000 212.000000"
 preserveAspectRatio="xMidYMid meet">

<g transform="translate(0.000000,212.000000) scale(0.100000,-0.100000)"
fill="#000000" stroke="none">
<path d="M0 1060 l0 -1060 1455 0 1455 0 0 1060 0 1060 -1455 0 -1455 0 0
-1060z m1343 118 c15 -11 28 -27 28 -36 2 -18 2 -58 0 -80 -2 -22 -64 -52
-107 -52 -43 0 -55 9 -86 66 -16 29 -16 33 3 72 32 63 97 75 162 30z m214 6
c18 -24 16 -37 -8 -68 -15 -19 -30 -26 -55 -26 -33 0 -34 -1 -34 -40 0 -35 -3
-40 -23 -40 -20 0 -22 4 -21 53 l0 52 40 3 c42 4 64 17 64 38 0 10 -13 14 -45
14 -25 0 -45 2 -45 4 0 2 -3 12 -7 22 -6 15 0 17 57 11 45 -4 68 -11 77 -23z
m87 20 c12 -4 14 -16 9 -54 -7 -59 1 -96 24 -104 27 -11 37 10 38 86 1 40 7
74 12 75 15 5 33 -21 33 -48 0 -13 0 -44 0 -70 -1 -39 -4 -47 -29 -62 -36 -21
-84 -22 -101 -2 -7 8 -9 15 -5 15 4 0 3 6 -3 13 -17 20 -21 72 -9 116 6 22 12
41 13 41 1 0 9 -3 18 -6z m284 -6 c21 -21 13 -28 -34 -28 -41 0 -45 -2 -42
-22 2 -17 11 -24 33 -26 29 -3 75 -37 75 -54 0 -5 -11 -20 -25 -33 -20 -21
-34 -25 -84 -25 -50 0 -59 3 -55 15 4 10 20 15 49 15 43 0 73 19 60 40 -3 5
-21 10 -40 10 -54 0 -67 21 -56 93 3 23 99 35 119 15z m-938 -99 c0 -6 -25
-19 -36 -19 -2 0 -4 11 -4 25 0 23 2 24 20 13 11 -7 20 -16 20 -19z m56 10 c3
-6 0 -15 -7 -20 -22 -14 -29 -11 -29 11 0 21 24 27 36 9z m60 0 c3 -6 0 -15
-7 -20 -13 -7 -28 5 -29 24 0 11 28 8 36 -4z m472 -186 c3 -10 -40 -13 -192
-13 -180 0 -209 4 -189 24 4 3 90 5 192 4 137 -2 185 -6 189 -15z"/>
<path d="M1233 1151 c-30 -25 -29 -54 2 -86 30 -29 56 -32 77 -7 26 30 28 61
5 88 -25 29 -54 30 -84 5z"/>
</g>
</svg>
